Coordinates
version=1
nRows=20
nColumns=34
inDegrees=yes

Units are S.I. units (second, meters, Newtons, ...)
If the header above contains a line with 'inDegrees', this indicates whether rotational values are in degrees (yes) or radians (no).

endheader
time	pelvis_tilt	pelvis_list	pelvis_rotation	pelvis_tx	pelvis_ty	pelvis_tz	hip_flexion_r	hip_adduction_r	hip_rotation_r	knee_angle_r	ankle_angle_r	subtalar_angle_r	mtp_angle_r	hip_flexion_l	hip_adduction_l	hip_rotation_l	knee_angle_l	ankle_angle_l	subtalar_angle_l	mtp_angle_l	lumbar_extension	lumbar_bending	lumbar_rotation	arm_flex_r	arm_add_r	arm_rot_r	elbow_flex_r	pro_sup_r	arm_flex_l	arm_add_l	arm_rot_l	elbow_flex_l	pro_sup_l
      5.38333330	    -10.31527140	     -0.36499141	     -2.10997637	      0.33538009	      0.73080940	     -0.01897537	     54.33671451	    -19.61565033	     -7.98714178	     76.38533648	     34.82837752	     15.58568679	      0.00000000	     53.25263289	    -28.80778828	    -14.39102321	     75.30313226	     33.06624162	     17.09961359	      0.00000000	    -27.08616138	      1.11446946	      0.47263589	    106.66482139	     -0.65442344	     60.46462058	    127.44339136	     94.69061686	    117.16297751	     -7.79788011	     80.54507789	    126.21354727	    102.92181407
      5.40000000	    -10.01146532	     -0.44542339	     -1.98143250	      0.33331201	      0.71840508	     -0.02065918	     55.68608155	    -20.05758659	     -7.48814742	     79.07683648	     35.70540254	     15.94264401	      0.00000000	     54.62575766	    -29.56600482	    -13.92316228	     77.87979912	     34.01485447	     17.31885029	      0.00000000	    -28.60677645	      1.17600495	      0.35499020	    107.00423232	     -0.48181342	     60.41174505	    127.50291540	     94.68724603	    117.97889678	     -7.35853111	     79.77821515	    125.56573232	    102.54072681
      5.41666670	     -9.54262578	     -0.50399231	     -1.71856136	      0.32718531	      0.70859821	     -0.01961482	     57.09800990	    -20.53984964	     -7.02057787	     81.70516016	     36.37528421	     15.78903510	      0.00000000	     56.08551553	    -30.04010644	    -13.03661755	     80.38804474	     34.73352533	     17.21398641	      0.00000000	    -30.34818049	      1.10610068	      0.88556948	    107.73025624	     -0.93933404	     60.05449070	    127.42115908	     94.69343979	    118.29690295	     -6.21704741	     79.02527520	    125.81396688	    102.14073842
      5.43333330	     -9.11927277	     -0.66819373	     -1.84923296	      0.32502448	      0.69743020	     -0.02016752	     58.32825755	    -20.57817497	     -6.41835794	     84.11686074	     36.97939187	     16.02749074	      0.00000000	     57.56184966	    -30.79408138	    -12.01912290	     82.89220270	     35.30044947	     17.37455700	      0.00000000	    -31.90065099	      0.88614250	      2.09482428	    108.47387862	     -2.39095448	     59.90324706	    128.14386000	     94.78127255	    118.19691676	     -5.01811189	     77.78119750	    124.31547962	     96.70480329
      5.45000000	     -8.71144187	     -0.74905003	     -1.89604940	      0.32552656	      0.68778463	     -0.02073693	     59.54789662	    -20.76056017	     -5.70033090	     86.49305092	     38.12072098	     16.73187132	      0.00000000	     58.72239256	    -31.45756617	    -11.28574904	     85.16940139	     36.34452590	     18.16315361	      0.00000000	    -33.20106600	      0.91283678	      2.71731686	    108.52851234	     -2.78841652	     59.43071048	    128.05165567	     94.79628471	    117.67274293	     -4.59812452	     77.81297104	    125.78405111	     96.34270234
      5.46666670	     -8.49049495	     -0.77636629	     -2.03614452	      0.32289910	      0.67534367	     -0.02118033	     61.14345383	    -20.88457453	     -4.91479403	     88.90843838	     38.90449935	     16.59301491	      0.00000000	     60.10109936	    -32.00354434	    -10.44659684	     87.43563106	     37.48489994	     18.85926337	      0.00000000	    -34.41296348	      0.80202456	      3.16083622	    108.77875489	     -3.59072354	     58.62356302	    127.33351125	     94.76719687	    117.70287629	     -4.76408507	     77.54987236	    125.94712878	     96.01746938
      5.48333330	     -8.09378775	     -0.71301204	     -2.22645287	      0.31921056	      0.66734684	     -0.02189103	     62.49504237	    -20.95332390	     -4.10016287	     90.99601288	     39.57892846	     16.57541970	      0.00000000	     61.33302894	    -32.35363607	     -9.70595598	     89.60065156	     38.19875400	     19.01955695	      0.00000000	    -35.75472442	      0.60712457	      3.48624123	    109.04267990	     -4.23520696	     58.24503623	    127.23757746	     94.75599495	    117.47038323	     -4.93397751	     77.65417712	    126.41206112	     95.86212725
      5.50000000	     -8.14699851	     -0.63508437	     -2.36197490	      0.31456575	      0.65709412	     -0.02176867	     64.36222111	    -20.99365919	     -3.19654115	     93.00593250	     40.19472211	     16.31423210	      0.00000000	     63.18477151	    -32.67140898	     -8.83310389	     91.81285817	     38.36249162	     18.63638313	      0.00000000	    -37.07416612	      0.43093910	      3.76653307	    109.92672027	     -4.55025916	     57.51302656	    127.04124442	     94.71787965	    117.85559902	     -4.61897001	     77.67334504	    126.98491040	     95.69911000
      5.51666670	     -8.23876658	     -0.56752535	     -2.40424740	      0.31221426	      0.64651337	     -0.02111090	     66.24002755	    -21.00108926	     -2.35362006	     94.93626327	     40.35265123	     16.52800927	      0.00000000	     65.23227935	    -32.95488401	     -7.88551122	     93.98189867	     38.30555170	     18.01369965	      0.00000000	    -38.39237540	      0.24601305	      3.83453258	    110.92237359	     -4.53405339	     56.87092774	    127.21120228	     94.66856168	    118.56073731	     -4.58373581	     77.72069835	    127.21210250	     95.52944610
      5.53333330	     -8.83191520	     -0.54422895	     -2.15184838	      0.31048374	      0.63510144	     -0.02134092	     68.35606235	    -21.33162901	     -1.77556669	     96.79608692	     40.59032217	     16.09085256	      0.00000000	     67.69106981	    -32.75963833	     -6.63110610	     95.70410094	     38.46500932	     17.59239490	      0.00000000	    -39.33642732	      0.27540104	      3.54292733	    111.90928383	     -4.18066599	     56.52105228	    128.09070929	     94.53315274	    119.80382747	     -4.73238070	     78.23127892	    127.67773983	     95.03204586
      5.55000000	     -9.08975658	     -0.42877267	     -2.15185821	      0.31080138	      0.62620641	     -0.01972886	     70.06220419	    -21.45159642	     -1.08646036	     98.54117364	     41.03314582	     15.91330309	      0.00000000	     69.37753470	    -32.98127043	     -5.77018101	     97.43195488	     38.69765192	     17.27475679	      0.00000000	    -40.45202277	      0.05407442	      3.47969322	    112.68153399	     -3.77578221	     56.18430237	    128.25327761	     94.48832327	    120.40482895	     -4.92722768	     78.31002693	    127.46621105	     94.87289563
      5.56666670	     -9.80272343	     -0.47806221	     -1.94547501	      0.31011693	      0.61414464	     -0.01641056	     72.09610254	    -21.48215818	     -0.71004759	    100.33842954	     41.66797423	     15.96964719	      0.00000000	     71.90366784	    -33.05133007	     -4.38300049	     99.20736835	     38.70060172	     16.94163423	      0.00000000	    -41.01348401	     -0.03865083	      2.99729034	    112.89057786	     -2.84342916	     56.08615170	    128.71472424	     94.32590983	    121.42438965	     -5.80817107	     79.01268768	    127.37134242	     94.26659889
      5.58333330	    -10.36991196	     -0.40866917	     -1.80538196	      0.30413038	      0.60557621	     -0.01665768	     74.01428549	    -21.49295831	     -0.28048234	    101.84942588	     41.87045838	     15.32397038	      0.00000000	     74.51135635	    -32.97510430	     -3.19907180	    101.05208371	     38.40446776	     16.32918145	      0.00000000	    -41.96264680	     -0.23123501	      2.65727079	    113.77506295	     -2.06119427	     56.21458489	    128.70159322	     94.16051452	    122.74870462	     -6.10349952	     79.51040105	    127.13499658	     93.59584571
      5.60000000	    -10.83188509	     -0.40850558	     -1.55566438	      0.30478839	      0.59652739	     -0.01478419	     75.79886516	    -21.50333977	      0.18968000	    103.48778203	     42.00588723	     15.31595764	      0.00000000	     76.86116515	    -33.04529353	     -2.15639989	    102.60909249	     38.21310289	     16.35575202	      0.00000000	    -42.72808737	     -0.29155437	      2.86768997	    114.08974523	     -2.24987698	     55.31548142	    128.08790772	     93.86658539	    123.03212063	     -5.62951455	     79.94250690	    126.63668150	     92.79116192
      5.61666670	    -11.30088098	     -0.25169992	     -1.32855792	      0.30413984	      0.58694324	     -0.01553120	     77.46887617	    -21.62937387	      0.84315416	    104.93224309	     42.49501661	     15.44401427	      0.00000000	     78.91519047	    -32.94240108	     -1.38303561	    104.11228362	     38.27714793	     16.69733237	      0.00000000	    -43.56275210	     -0.25482284	      3.15081654	    114.75830215	     -2.49945307	     54.63662093	    127.72657811	     93.69288662	    123.55249610	     -5.25456224	     79.75611222	    126.10339434	     92.42819911
      5.63333330	    -11.89317918	     -0.17671365	     -1.13029483	      0.30034118	      0.57501169	     -0.01522083	     79.53952570	    -21.79818169	      1.55095515	    106.59366107	     42.77346386	     15.64703384	      0.00000000	     81.35517613	    -32.70805938	     -0.29950370	    105.76815897	     38.56681076	     16.96005389	      0.00000000	    -44.10351458	     -0.26364054	      3.35270894	    115.40577823	     -2.54318520	     54.53139686	    128.00737369	     93.49208679	    124.22811960	     -4.75415742	     79.57985446	    126.01181085	     92.05008211
      5.65000000	    -12.44480743	     -0.11384294	     -0.98452676	      0.29681824	      0.56305354	     -0.01491839	     81.86791411	    -21.92154566	      2.44583754	    108.42284639	     43.06057819	     15.80517853	      0.00000000	     83.95079756	    -32.43870036	      0.89065344	    107.66641830	     38.77445836	     16.97712185	      0.00000000	    -44.59390964	     -0.21472053	      3.66437131	    116.20294305	     -2.65786761	     54.51818756	    128.28856521	     93.27223706	    124.83818739	     -4.26530391	     79.44452229	    126.36283093	     91.69319765
      5.66666670	    -13.13209838	     -0.05836138	     -0.96831786	      0.29727714	      0.55199994	     -0.01611219	     84.43997437	    -22.03043625	      3.39857633	    110.43905743	     42.95487344	     15.31646730	      0.00000000	     86.75191012	    -32.19067836	      2.22113280	    109.77038158	     38.91827695	     16.51676595	      0.00000000	    -44.71714411	     -0.07050042	      4.27278188	    116.56936078	     -3.12058522	     55.08021031	    128.65136619	     92.86667180	    124.84344775	     -4.03402284	     79.89858504	    126.99087482	     91.12086473
      5.68333330	    -13.74031105	     -0.00844965	     -0.96571216	      0.29686323	      0.54285489	     -0.01491917	     86.78805376	    -22.08161433	      4.31664710	    112.23351500	     42.72788697	     14.78303214	      0.00000000	     88.92605722	    -32.10988167	      3.27660637	    111.31144639	     39.27239924	     16.98482211	      0.00000000	    -44.99114185	     -0.01942846	      4.65225743	    116.98673158	     -3.24507103	     55.58083013	    128.83446492	     92.19895735	    124.75067969	     -3.97071536	     80.36771714	    127.56983520	     90.29262774
      5.70000000	    -14.00612258	      0.10313423	     -0.87717990	      0.29269908	      0.53319795	     -0.01672660	     88.65338891	    -22.18474167	      5.24370082	    113.71826823	     42.66494286	     15.04621601	      0.00000000	     90.67761502	    -31.95535790	      3.99480990	    112.80668313	     39.27915066	     17.13130791	      0.00000000	    -45.73324897	      0.04928837	      4.76456241	    117.74612881	     -3.14039607	     55.45588179	    128.65807771	     92.06201752	    125.21171386	     -3.79796593	     80.19882766	    127.53402510	     90.11857959
